<svg width="403" height="373" viewBox="0 0 403 373" fill="none" xmlns="http://www.w3.org/2000/svg">
<path d="M86.2032 373L140.08 187.578L168.096 308.318L86.2032 373Z" fill="white"/>
<path d="M172.406 284.601L148.701 185.422L314.642 211.295L172.406 284.601Z" fill="white"/>
<path d="M191.802 23.7168L148.701 176.798L323.262 204.827L191.802 23.7168Z" fill="white"/>
<path d="M329.727 202.671L278.005 131.52L362.053 116.428L329.727 202.671Z" fill="white"/>
<path d="M355.588 153.081L370.674 116.428L403 153.081H355.588Z" fill="white"/>
<path d="M140.08 174.642L183.182 21.5607L4.31016 0L140.08 174.642Z" fill="white"/>
<path d="M77.5829 103.491L19.3957 30.185H0L77.5829 103.491Z" fill="white"/>
<path d="M316.797 230.699L323.262 215.607L187.492 282.445L316.797 230.699Z" fill="white"/>
</svg>
